<?xml version="1.0" encoding="utf-8"?>
<!-- Generator: Adobe Illustrator 23.0.2, SVG Export Plug-In . SVG Version: 6.00 Build 0)  -->
<svg version="1.1" id="Layer_1" xmlns="http://www.w3.org/2000/svg" xmlns:xlink="http://www.w3.org/1999/xlink" x="0px" y="0px"
	 viewBox="0 0 791 1063" enable-background="new 0 0 791 1063" xml:space="preserve">
<g>
	<path fill="#FFFFFF" d="M41.98,971.09c0.63,7.35,1.01,15.51,2.09,23.58c4.87,36.43,29.89,58.51,66.6,58.26
		c10.59-0.07,21.15-2.13,31.76-2.79c22.32-1.38,44.18-5.41,65.83-10.76c25.96-6.41,51.72-13.74,77.87-19.22
		c39.49-8.28,79.2-15.53,118.9-22.8c30.47-5.58,61.23-9.04,92.25-9.29c31.66-0.26,63.32-0.25,94.98,0.12
		c12.96,0.15,26.01,0.78,38.83,2.58c18.57,2.6,36.87,7.08,55.45,9.62c20.05,2.73,39.28-0.46,55.98-12.9
		c17.18-12.79,29.36-29.46,35.71-49.94c7.26-23.43,5.67-45.38-12.79-63.81c-4.21-4.21-3.83-8.89-1.01-13.66
		c5.29-8.96,5.98-18.76,5.98-28.9c0.01-20.36-3.7-40.04-10.06-59.24c-2.69-8.13-5.73-16.26-9.71-23.8
		c-3.02-5.73-9.04-8.07-15.65-8.19c-9.05-0.15-15.84,4.43-21.79,10.55c-7.66,7.88-14.81,16.3-22.78,23.84
		c-10.5,9.94-21.2,19.75-32.56,28.66c-7.81,6.13-14.98,3.53-16.66-6.15c-1.73-10.03-2.71-20.64-1.43-30.66
		c3.25-25.37,8.97-50.41,8.92-76.22c-0.03-13.99,0.16-27.7-9.85-39.12c-2.91-3.32-2.52-7.21,0.26-10.52
		c10.06-12.02,11.49-26.17,10.25-40.98c-1.67-19.97-1.78-39.93,0.39-59.87c1.72-15.71,3.69-31.38,5.42-47.09
		c1.29-11.74,1.75-23.61,3.73-35.22c2.65-15.55,6.12-30.98,9.75-46.33c5.32-22.49,5.49-45.19,3.35-67.98
		c-0.78-8.31,0.88-15.34,6.61-21.6c6.58-7.19,10.4-15.84,11.32-25.57c0.53-5.63,0.96-11.32,0.71-16.95
		c-0.62-14.25,1.05-28.21,4.03-42.1c1.7-7.94,2.51-16.03-2.57-23.11c-4.85-6.77-4.97-13.59-2.51-21.26
		c4.18-13.05,4.56-26.63,3.08-40.08c-2.92-26.63-11.82-51.56-24.94-74.71C641.6,31.42,601.83,6.81,548.57,7.31
		c-22.16,0.21-44.38,3.74-66.39,7.06c-43.82,6.6-87.86,10.58-132.09,12.61c-10.63,0.49-21.29,0.31-31.94,0.31
		c-28.99,0-58.16,4.37-86.81-4.23c-9.97-2.99-19.78,0.98-29.38,3.41c-14.07,3.55-28.2,5.34-42.46,2.14
		c-16.25-3.64-32.38-3.81-48.4,0.61c-12.02,3.31-24.13,4.45-36.54,3.85c-6.3-0.3-12.75-0.49-18.93,0.51
		c-19.48,3.16-30.4,16.33-36.29,33.88c-3.25,9.69-5.11,19.94-6.65,30.07c-3.78,24.88-6.65,49.87-2.65,75.04
		c2.48,15.56,6.71,30.58,16.18,43.53c6.72,9.2,16.01,14.45,27.4,13.66c8.68-0.6,17.29-2.82,25.83-4.76
		c8.74-1.98,13.87,0.64,14.12,9.43c0.35,11.93,0.6,24.11-1.41,35.78c-2.38,13.86-7.19,27.3-10.96,40.92
		c-5.86,21.13-6.02,42.76-5.87,64.44c0.25,38.48-4.81,76.31-14.14,113.6c-2.16,8.63-3.31,17.32-1.3,26.17
		c4.84,21.4,3.66,42.5-2.16,63.65c-1.99,7.22-1.59,15.1-2.21,22.68c-0.51,6.22-0.93,12.45-1.4,18.67
		c-0.44,5.9-1.38,11.81-1.22,17.69c0.19,6.79,1.56,13.55,2.02,20.34c1.08,16.08-1.51,31.86-4.43,47.59
		c-3.67,19.79,1.7,34.29,21.06,41.13c6.93,2.44,7.74,6.4,3.18,12.33c-4.67,6.07-9.43,12.09-14.53,17.8
		c-15.46,17.31-23.86,37.19-21.96,60.62c0.82,10.08,2.6,20.11,4.31,30.09c3.02,17.58,5.55,35.12,3.66,53.08
		C44.5,937.39,43.41,953.84,41.98,971.09z"/>
	<path d="M41.98,971.09c1.43-17.25,2.52-33.69,4.24-50.07c1.89-17.96-0.64-35.5-3.66-53.08c-1.72-9.99-3.5-20.01-4.31-30.09
		c-1.9-23.43,6.5-43.32,21.96-60.62c5.1-5.71,9.87-11.73,14.53-17.8c4.56-5.93,3.75-9.89-3.18-12.33
		c-19.36-6.83-24.73-21.34-21.06-41.13c2.91-15.73,5.51-31.51,4.43-47.59c-0.46-6.8-1.84-13.55-2.02-20.34
		c-0.16-5.88,0.78-11.79,1.22-17.69c0.47-6.22,0.88-12.45,1.4-18.67c0.63-7.58,0.23-15.46,2.21-22.68c5.82-21.15,7-42.24,2.16-63.65
		c-2-8.85-0.86-17.54,1.3-26.17c9.33-37.29,14.4-75.12,14.14-113.6c-0.14-21.67,0.02-43.31,5.87-64.44
		c3.78-13.62,8.58-27.06,10.96-40.92c2-11.68,1.75-23.86,1.41-35.78c-0.25-8.79-5.39-11.41-14.12-9.43
		c-8.54,1.94-17.15,4.16-25.83,4.76c-11.39,0.79-20.68-4.46-27.4-13.66c-9.47-12.95-13.71-27.97-16.18-43.53
		c-4.01-25.16-1.13-50.16,2.65-75.04c1.54-10.14,3.4-20.39,6.65-30.07c5.89-17.55,16.81-30.73,36.29-33.88
		c6.18-1,12.63-0.81,18.93-0.51c12.41,0.6,24.53-0.54,36.54-3.85c16.02-4.41,32.15-4.24,48.4-0.61c14.26,3.19,28.4,1.4,42.46-2.14
		c9.61-2.42,19.41-6.4,29.38-3.41c28.65,8.6,57.81,4.23,86.81,4.23c10.65,0,21.31,0.18,31.94-0.31
		c44.23-2.02,88.27-6.01,132.09-12.61c22-3.31,44.23-6.85,66.39-7.06c53.26-0.5,93.02,24.1,119.15,70.19
		c13.12,23.15,22.02,48.08,24.94,74.71c1.47,13.44,1.1,27.03-3.08,40.08c-2.46,7.67-2.34,14.49,2.51,21.26
		c5.07,7.08,4.27,15.17,2.57,23.11c-2.98,13.89-4.66,27.85-4.03,42.1c0.25,5.63-0.18,11.33-0.71,16.95
		c-0.92,9.74-4.74,18.38-11.32,25.57c-5.72,6.26-7.39,13.29-6.61,21.6c2.15,22.79,1.98,45.49-3.35,67.98
		c-3.63,15.36-7.1,30.79-9.75,46.33c-1.98,11.62-2.43,23.49-3.73,35.22c-1.73,15.7-3.7,31.38-5.42,47.09
		c-2.18,19.93-2.07,39.9-0.39,59.87c1.24,14.81-0.19,28.95-10.25,40.98c-2.77,3.32-3.17,7.2-0.26,10.52
		c10.01,11.41,9.83,25.12,9.85,39.12c0.05,25.81-5.67,50.84-8.92,76.22c-1.29,10.02-0.31,20.63,1.43,30.66
		c1.67,9.68,8.85,12.28,16.66,6.15c11.36-8.92,22.06-18.73,32.56-28.66c7.97-7.55,15.12-15.96,22.78-23.84
		c5.95-6.12,12.74-10.71,21.79-10.55c6.61,0.11,12.62,2.46,15.65,8.19c3.98,7.54,7.01,15.67,9.71,23.8
		c6.36,19.2,10.08,38.88,10.06,59.24c-0.01,10.14-0.69,19.94-5.98,28.9c-2.82,4.78-3.21,9.46,1.01,13.66
		c18.46,18.44,20.05,40.39,12.79,63.81c-6.35,20.48-18.53,37.14-35.71,49.94c-16.69,12.43-35.93,15.63-55.98,12.9
		c-18.57-2.53-36.88-7.02-55.45-9.62c-12.82-1.8-25.87-2.43-38.83-2.58c-31.66-0.37-63.32-0.38-94.98-0.12
		c-31.01,0.25-61.77,3.71-92.25,9.29c-39.69,7.27-79.41,14.52-118.9,22.8c-26.15,5.48-51.91,12.81-77.87,19.22
		c-21.65,5.35-43.51,9.38-65.83,10.76c-10.61,0.66-21.17,2.72-31.76,2.79c-36.71,0.24-61.73-21.83-66.6-58.26
		C42.99,986.6,42.61,978.44,41.98,971.09z M433.17,839.8c-0.01-0.4-0.01-0.8-0.02-1.2c40.44-1.92,80.89-3.76,121.32-5.81
		c20.34-1.03,40.51-3.48,59.96-9.97c8.03-2.68,9.77-6.07,6.99-14.02c-4.09-11.69-5.78-23.75-4.42-35.93
		c1.62-14.54,4.63-28.92,6.5-43.44c1.95-15.18,3.54-30.42,4.78-45.67c0.82-10.11-2.46-19.02-11.5-24.44
		c-4.31-2.59-9.46-3.93-14.38-5.34c-4.14-1.19-8.6-1.27-12.71-2.53c-5.8-1.78-7.01-6.84-2.89-11.24c1.57-1.67,3.47-3.32,5.55-4.16
		c6.45-2.6,12.91-5.48,19.65-7.02c14.63-3.34,17.64-6.29,18.53-21.42c0.28-4.81,0.03-9.65-0.07-14.48
		c-0.25-11.82-1.69-23.75-0.62-35.45c3.01-33,6.58-65.96,10.83-98.82c2.84-21.94,7.94-43.59,10.69-65.53
		c2.29-18.29,3.59-36.82-0.65-55.2c-1.78-7.75,0.42-14.88,5.12-21.19c2.09-2.8,4.42-5.43,6.71-8.06c4.76-5.47,7.3-11.7,7.75-19.03
		c1.08-17.6,2.16-35.21,3.94-52.75c0.73-7.2-0.57-12.63-6.43-17.1c-5.1-3.89-6.13-9.34-4.14-15.29c1.11-3.31,2.53-6.52,3.95-9.71
		c3.59-8.06,5.39-16.5,4.97-25.28c-1.38-28.93-8.99-56.29-22.92-81.57c-19.98-36.25-50.69-57.09-92.28-60.79
		c-18.91-1.68-37.59,1-56.16,4.22c-60.85,10.53-122.12,16.53-183.89,17.36c-14.16,0.19-28.33,0.09-42.49,0.22
		c-11.38,0.1-14,2.15-16.62,13.09c-1.9,7.93-3.32,15.98-5.41,23.86c-1.13,4.27-2.56,8.74-5.02,12.32
		c-3.51,5.11-9.95,4.26-12.31-1.48c-1.35-3.27-1.83-7.11-1.87-10.69c-0.09-9.99,0.62-19.99,0.35-29.97
		c-0.27-9.9-6.08-14.97-15.98-14.09c-5.6,0.5-11.15,1.93-16.64,3.26c-12.4,3.01-25.01,5.21-37.63,3.01
		c-22.32-3.9-44.1-1.93-65.78,3.77c-8.21,2.16-9.52,4.81-4.66,11.8c5.84,8.4,9.47,17.49,10.7,27.65c1.02,8.43,2.8,16.78,3.61,25.22
		c1.66,17.38,3.07,34.79,4.21,52.21c0.33,5.1-0.93,10.29-0.89,15.44c0.06,7.29,4.58,12.62,11.66,14.35c2.26,0.55,4.6,0.75,6.9,1.15
		c3.75,0.65,7.42,1.66,8.09,6.13c0.63,4.22-1.87,7.16-5.3,8.8c-3.56,1.7-7.48,2.7-11.3,3.82c-8.41,2.49-11.89,6.54-11.38,15.21
		c1.19,20.09-2.07,39.56-7.84,58.65c-7.44,24.64-10.49,49.68-9.83,75.45c0.96,37.59-2.68,74.88-10.09,111.78
		c-2.16,10.77-5.27,21.45-3.65,32.6c3.34,23.02,3.41,45.78-3.92,68.21c-2.5,7.66-1.25,14.9,3.85,21.69
		c5.41,7.21,4.98,12.18-1.45,19.23c-5.22,5.72-6.65,11.96-5.44,19.33c3.48,21.14,2.14,42.18-1.73,63.13
		c-3.54,19.16,2.36,26.03,21.9,25.6c3.98-0.09,8.05-0.11,11.93,0.61c7.42,1.38,10.85,7.77,7.88,14.72c-1.41,3.31-3.6,6.38-5.86,9.22
		c-6.56,8.25-10.04,17.55-10.48,28.05c-0.21,4.99-0.35,10-0.86,14.97c-1.29,12.67-8.03,16.53-19.53,11.37
		c-0.61-0.27-1.21-0.55-1.84-0.78c-5.11-1.88-8.44-0.77-10.51,4.33c-1.41,3.49-2.67,7.4-2.58,11.08c0.24,9.45,0.78,18.94,2.12,28.29
		c1.64,11.52,4.75,22.84,6.27,34.37c2.96,22.5-0.15,44.89-2.35,67.27c-1.42,14.46-2.1,28.9,1.38,43.23
		c4.59,18.88,17.61,31.21,36.66,33.14c16.62,1.69,32.57-1.67,47.24-9.77c11.06-6.11,16.42-16.27,18.03-28.44
		c1.09-8.25-2.44-11.64-10.63-10.55c-5.44,0.72-10.81,2.04-16.25,2.71c-15.82,1.95-26.73-5.42-30.14-20.97
		c-1.34-6.11-1.68-12.57-1.52-18.84c0.41-16.32,1.25-32.63,2.09-48.94c0.66-12.99,1.68-25.93,6.39-38.28
		c8.01-21,26.34-32.21,48.58-28.68c9.82,1.56,19.47,4.38,29.05,7.11c10.85,3.09,21.71,4.75,33.04,3.73
		c9.61-0.87,19.32-1.71,28.94-1.32c19.13,0.78,38.22,3.36,57.34,3.48C354.89,841.07,394.03,840.2,433.17,839.8z M751.07,826.3
		c1.14-20.3-7.41-38.39-13.28-57.05c-1.67-5.3-5.92-5.94-10.28-2.18c-2.75,2.38-5.16,5.2-7.47,8.03
		c-13.09,16.06-27.03,31.26-43.83,43.58c-32.37,23.74-69.68,33.49-108.78,37.18c-18.37,1.74-36.96,0.99-55.41,2
		c-27.27,1.5-54.48,4.02-81.76,5.26c-27.12,1.23-54.28,1.8-81.43,1.94c-17.8,0.09-35.65-0.5-53.39-1.87
		c-23.13-1.79-46.16-2.54-69.36-0.92c-9.79,0.68-19.84-1.19-29.66-2.66c-5.19-0.78-10.08-3.38-15.21-4.82
		c-6.45-1.81-8.47,0.24-7.09,6.69c4.83,22.63,9.82,45.23,14.39,67.91c4.19,20.78,7.46,41.7,4.43,62.99
		c-0.91,6.41-2.73,12.68-3.91,19.06c-0.98,5.31,0.81,7.19,6.13,6.78c1.65-0.13,3.3-0.44,4.91-0.86c9.18-2.4,18.34-4.86,27.52-7.28
		c58.66-15.51,118.19-26.88,178-36.71c25.92-4.26,52.12-7.97,78.32-9.16c34.92-1.59,69.95-0.45,104.94-0.55
		c29.44-0.09,58.44,3.05,87.14,10c10.69,2.59,22.05,3.52,33.07,3.29c11.44-0.24,21.48-5.74,29.59-13.99
		c4.7-4.79,3.56-8.7-2.73-10.73c-2.22-0.72-4.52-1.16-6.73-1.89c-4.06-1.34-8.31-2.93-8.21-8.09c0.1-5.05,4.29-6.89,8.38-8
		c3.34-0.91,6.87-1.27,10.33-1.46c3.48-0.2,6.99,0.2,10.49,0.18c4.52-0.02,7.49-2.27,9.03-6.53c7.28-20.27-4.42-38.82-25.56-40.59
		c-4.14-0.35-8.41-0.53-12.3-1.78c-2.33-0.75-5.28-3.16-5.71-5.27c-0.42-2.11,1.46-5.28,3.24-7.08c2.02-2.05,4.91-3.5,7.68-4.52
		c17.67-6.54,25.61-19.26,24.56-37.87C751.02,828.3,751.07,827.3,751.07,826.3z M94.28,172.5c-0.39-7.07-0.46-15.75-1.42-24.33
		c-2-17.85-4.08-35.71-6.88-53.45C83.62,79.71,75.12,68.39,61.86,61c-7.61-4.24-14.45-2.87-19.22,4.38
		c-3.4,5.17-5.91,11.18-7.61,17.15c-2.4,8.44,0.29,11,9.12,9.81c9.05-1.22,16.8,1.33,23.29,7.67c6.22,6.08,10.45,13.43,12.63,21.78
		c5.66,21.68,7.32,43.6,3.32,65.79c-0.56,3.1-1.16,6.25-1.2,9.39c-0.06,5.08,3.32,6.78,7.61,4.04c3.64-2.33,4.54-5.92,4.5-9.96
		C94.24,185.4,94.28,179.75,94.28,172.5z M64.62,181.42c-0.69-9.53-3.36-11.68-12.7-11.68c-5.35,0-10.83-1.05-16.02-2.49
		c-5.63-1.56-7.67-0.66-7.23,5.17c0.83,11.02,4.37,21.22,11.15,29.97c6.55,8.46,15.73,7.53,20-2.31
		C62.33,194.26,63.08,187.66,64.62,181.42z M134.2,890.24c0.31,6.38,0.28,11.73,0.9,16.99c0.65,5.57,2.76,6.52,7.76,4.17
		c2.86-1.34,5.72-2.7,8.57-4.06c6.61-3.15,8.39-5.74,7.39-12.97c-1.2-8.73-2.78-17.42-4.68-26.02c-0.99-4.48-2.39-9.41-8.25-9.99
		c-3.81-0.38-7.44,3.53-8.71,10.15C135.75,876.02,135.08,883.65,134.2,890.24z M158.22,945.37c0.25,3.43-0.12,7.22,4.57,7.6
		c3.2,0.26,5.16-3.15,4.67-7.88c-0.22-2.13-0.46-4.4-1.39-6.26c-0.84-1.7-2.61-2.94-3.98-4.39c-1.04,1.55-2.44,2.97-3.01,4.68
		C158.42,941.11,158.47,943.36,158.22,945.37z"/>
	<path fill="#FFFFFF" d="M433.17,839.8c-39.14,0.41-78.29,1.28-117.42,1.02c-19.12-0.13-38.21-2.71-57.34-3.48
		c-9.62-0.39-19.32,0.45-28.94,1.32c-11.33,1.03-22.19-0.64-33.04-3.73c-9.59-2.73-19.24-5.55-29.05-7.11
		c-22.23-3.53-40.56,7.68-48.58,28.68c-4.71,12.35-5.73,25.29-6.39,38.28c-0.83,16.31-1.68,32.62-2.09,48.94
		c-0.16,6.28,0.18,12.74,1.52,18.84c3.41,15.55,14.32,22.92,30.14,20.97c5.45-0.67,10.81-1.99,16.25-2.71
		c8.19-1.09,11.72,2.3,10.63,10.55c-1.61,12.18-6.97,22.34-18.03,28.44c-14.67,8.1-30.62,11.46-47.24,9.77
		c-19.06-1.93-32.07-14.26-36.66-33.14c-3.49-14.34-2.8-28.77-1.38-43.23c2.19-22.38,5.3-44.77,2.35-67.27
		c-1.52-11.53-4.62-22.85-6.27-34.37c-1.33-9.35-1.88-18.84-2.12-28.29c-0.09-3.68,1.17-7.59,2.58-11.08
		c2.06-5.1,5.4-6.22,10.51-4.33c0.62,0.23,1.23,0.51,1.84,0.78c11.5,5.17,18.24,1.3,19.53-11.37c0.5-4.97,0.65-9.97,0.86-14.97
		c0.44-10.5,3.92-19.8,10.48-28.05c2.26-2.84,4.45-5.91,5.86-9.22c2.97-6.95-0.46-13.35-7.88-14.72c-3.88-0.72-7.96-0.7-11.93-0.61
		c-19.54,0.43-25.44-6.44-21.9-25.6c3.87-20.95,5.22-41.99,1.73-63.13c-1.22-7.38,0.22-13.61,5.44-19.33
		c6.44-7.06,6.87-12.02,1.45-19.23c-5.1-6.79-6.36-14.02-3.85-21.69c7.33-22.44,7.27-45.2,3.92-68.21
		c-1.62-11.15,1.49-21.83,3.65-32.6c7.41-36.89,11.06-74.18,10.09-111.78c-0.66-25.77,2.39-50.81,9.83-75.45
		c5.77-19.09,9.03-38.55,7.84-58.65c-0.51-8.67,2.97-12.72,11.38-15.21c3.82-1.13,7.74-2.12,11.3-3.82c3.43-1.64,5.94-4.58,5.3-8.8
		c-0.67-4.47-4.34-5.48-8.09-6.13c-2.3-0.4-4.64-0.6-6.9-1.15c-7.08-1.73-11.6-7.06-11.66-14.35c-0.04-5.15,1.22-10.34,0.89-15.44
		c-1.13-17.42-2.54-34.83-4.21-52.21c-0.81-8.45-2.59-16.79-3.61-25.22c-1.23-10.16-4.85-19.25-10.7-27.65
		c-4.86-6.99-3.55-9.64,4.66-11.8c21.68-5.7,43.46-7.67,65.78-3.77c12.61,2.21,25.22,0,37.63-3.01c5.49-1.33,11.04-2.76,16.64-3.26
		c9.9-0.88,15.71,4.18,15.98,14.09c0.27,9.98-0.43,19.98-0.35,29.97c0.03,3.59,0.51,7.42,1.87,10.69c2.37,5.73,8.81,6.59,12.31,1.48
		c2.46-3.58,3.89-8.05,5.02-12.32c2.09-7.88,3.51-15.93,5.41-23.86c2.62-10.94,5.24-12.99,16.62-13.09
		c14.16-0.13,28.33-0.03,42.49-0.22c61.76-0.83,123.04-6.83,183.89-17.36c18.58-3.22,37.26-5.9,56.16-4.22
		c41.59,3.7,72.3,24.55,92.28,60.79c13.93,25.27,21.54,52.64,22.92,81.57c0.42,8.78-1.39,17.22-4.97,25.28
		c-1.42,3.19-2.84,6.4-3.95,9.71c-2,5.94-0.96,11.4,4.14,15.29c5.86,4.47,7.17,9.9,6.43,17.1c-1.79,17.54-2.87,35.15-3.94,52.75
		c-0.45,7.33-2.99,13.56-7.75,19.03c-2.3,2.64-4.63,5.26-6.71,8.06c-4.7,6.31-6.9,13.44-5.12,21.19c4.23,18.38,2.93,36.91,0.65,55.2
		c-2.74,21.95-7.85,43.59-10.69,65.53c-4.25,32.86-7.82,65.82-10.83,98.82c-1.07,11.7,0.37,23.63,0.62,35.45
		c0.1,4.83,0.35,9.67,0.07,14.48c-0.88,15.13-3.9,18.09-18.53,21.42c-6.74,1.54-13.19,4.42-19.65,7.02
		c-2.08,0.84-3.99,2.49-5.55,4.16c-4.12,4.39-2.91,9.46,2.89,11.24c4.11,1.26,8.57,1.35,12.71,2.53c4.91,1.41,10.06,2.75,14.38,5.34
		c9.03,5.43,12.32,14.34,11.5,24.44c-1.24,15.25-2.82,30.49-4.78,45.67c-1.87,14.52-4.87,28.9-6.5,43.44
		c-1.36,12.18,0.33,24.23,4.42,35.93c2.78,7.95,1.05,11.34-6.99,14.02c-19.45,6.48-39.61,8.94-59.96,9.97
		c-40.43,2.05-80.88,3.88-121.32,5.81C433.16,839,433.17,839.4,433.17,839.8z"/>
	<path fill="#FFFFFF" d="M751.07,826.3c0,1-0.05,2,0.01,3c1.04,18.62-6.89,31.34-24.56,37.87c-2.77,1.02-5.65,2.47-7.68,4.52
		c-1.78,1.8-3.66,4.97-3.24,7.08c0.42,2.11,3.37,4.53,5.71,5.27c3.89,1.25,8.17,1.43,12.3,1.78c21.14,1.77,32.85,20.32,25.56,40.59
		c-1.53,4.27-4.51,6.51-9.03,6.53c-3.5,0.02-7.01-0.38-10.49-0.18c-3.47,0.2-7,0.56-10.33,1.46c-4.08,1.11-8.28,2.95-8.38,8
		c-0.1,5.16,4.15,6.75,8.21,8.09c2.21,0.73,4.52,1.18,6.73,1.89c6.29,2.04,7.43,5.94,2.73,10.73c-8.1,8.26-18.15,13.75-29.59,13.99
		c-11.01,0.23-22.38-0.7-33.07-3.29c-28.7-6.95-57.69-10.09-87.14-10c-34.99,0.1-70.02-1.04-104.94,0.55
		c-26.2,1.19-52.4,4.9-78.32,9.16c-59.81,9.83-119.34,21.19-178,36.71c-9.17,2.43-18.34,4.89-27.52,7.28
		c-1.6,0.42-3.26,0.74-4.91,0.86c-5.32,0.41-7.11-1.47-6.13-6.78c1.18-6.38,3-12.65,3.91-19.06c3.03-21.28-0.24-42.21-4.43-62.99
		c-4.57-22.68-9.56-45.28-14.39-67.91c-1.38-6.45,0.64-8.5,7.09-6.69c5.12,1.44,10.01,4.04,15.21,4.82
		c9.82,1.47,19.87,3.34,29.66,2.66c23.2-1.62,46.23-0.87,69.36,0.92c17.74,1.37,35.59,1.96,53.39,1.87
		c27.15-0.14,54.31-0.71,81.43-1.94c27.28-1.24,54.49-3.76,81.76-5.26c18.45-1.01,37.04-0.26,55.41-2
		c39.11-3.69,76.41-13.44,108.78-37.18c16.8-12.32,30.74-27.52,43.83-43.58c2.31-2.83,4.72-5.65,7.47-8.03
		c4.35-3.76,8.61-3.11,10.28,2.18C743.66,787.91,752.21,806,751.07,826.3z"/>
	<path fill="#FFFFFF" d="M94.28,172.5c0,7.25-0.04,12.9,0.01,18.56c0.04,4.05-0.86,7.64-4.5,9.96c-4.29,2.74-7.67,1.04-7.61-4.04
		c0.04-3.13,0.64-6.28,1.2-9.39c4.01-22.19,2.34-44.12-3.32-65.79c-2.18-8.35-6.41-15.7-12.63-21.78
		c-6.5-6.34-14.25-8.89-23.29-7.67c-8.82,1.19-11.52-1.38-9.12-9.81c1.7-5.98,4.21-11.98,7.61-17.15
		c4.77-7.25,11.61-8.62,19.22-4.38c13.26,7.39,21.75,18.71,24.12,33.72c2.8,17.74,4.87,35.6,6.88,53.45
		C93.82,156.76,93.89,165.43,94.28,172.5z"/>
	<path fill="#FFFFFF" d="M64.62,181.42c-1.54,6.25-2.29,12.84-4.81,18.67c-4.26,9.84-13.45,10.77-20,2.31
		c-6.78-8.76-10.33-18.95-11.15-29.97c-0.44-5.82,1.6-6.72,7.23-5.17c5.19,1.43,10.67,2.49,16.02,2.49
		C61.26,169.74,63.93,171.89,64.62,181.42z"/>
	<path fill="#FFFFFF" d="M134.2,890.24c0.87-6.59,1.55-14.23,2.99-21.71c1.27-6.62,4.9-10.53,8.71-10.15
		c5.85,0.58,7.26,5.51,8.25,9.99c1.9,8.6,3.48,17.29,4.68,26.02c1,7.23-0.79,9.82-7.39,12.97c-2.85,1.36-5.71,2.72-8.57,4.06
		c-5,2.34-7.11,1.39-7.76-4.17C134.48,901.97,134.51,896.62,134.2,890.24z"/>
	<path fill="#FFFFFF" d="M158.22,945.37c0.25-2.01,0.19-4.25,0.87-6.25c0.57-1.7,1.98-3.13,3.01-4.68c1.36,1.44,3.13,2.69,3.98,4.39
		c0.92,1.86,1.17,4.13,1.39,6.26c0.49,4.73-1.47,8.14-4.67,7.88C158.11,952.59,158.47,948.8,158.22,945.37z"/>
</g>
</svg>
